# xmcd
# 
# Track frame offsets:
#     150
#     3280
#     18773
#     34183
#     54483
#     72358
#     88498
#     106815
#     110618
#     122690
#     139365
#     151478
#     162540
#     181560
#     186130
#     197250
#     204165
#     224058
#     231010
#     249215
#     265713
#     282390
# 
# Disc length: 4094
# 
# Revision: 127
# Processed by: cddbd v1.5.2PL0 Copyright (c) Steve Scherf et al.
# Submitted via: fre:ac v1.0.31
# 
DISCID=300ffc16
DTITLE=Dr. Dre - 2001
DYEAR=1999
DGENRE=Rap
TTITLE0=Dr. Dre feat. Xzibit and Tray-Dee - Lolo (Intro)
TTITLE1=The Watcher
TTITLE2=Dr. Dre feat. Devin The Dude and Snoop Dogg - Fuck You
TTITLE3=Dr. Dre feat. Snoop Dogg - Still D.R.E.
TTITLE4=Dr. Dre feat. Hittman - Big Ego's
TTITLE5=Dr. Dre feat. Hittman, Kurupt, Nate Dogg and Six-Two - Xxplosive
TTITLE6=Dr. Dre feat. Eminem and Xzibit - What's The Difference
TTITLE7=Dr. Dre feat. Traci Nelson, Ms. Roq and Eddie Griffin - Bar One
TTITLE8=Dr. Dre feat. Hittman - Light Speed
TTITLE9=Dr. Dre feat. Eminem - Forgot About Dre
TTITLE10=Dr. Dre feat. Snoop Dogg - The Next Episode
TTITLE11=Dr. Dre feat. Hittman, Kurupt and Ms. Roq - Let's Get High
TTITLE12=Dr. Dre feat. Snoop Dogg, Hittman and Six-Two - Bitch Niggaz
TTITLE13=Dr. Dre feat. Mel-Man and Charis Henry - The Car Bomb
TTITLE14=Dr. Dre feat. Hittman and Ms. Roq - Murder Ink
TTITLE15=Dr. Dre feat. Eddie Griffin - Ed-ucation
TTITLE16=Dr. Dre feat. DeFari, Xzibit, Knoc-turn'al, Time Bomb, King T, MC Ren and Kokane - Some L.A. Niggaz
TTITLE17=Dr. Dre feat. Jake Steed - Pause 4 Porno
TTITLE18=Dr. Dre feat. Kurupt and Hittman - Housewife
TTITLE19=Dr. Dre feat. Hittman - Ackrite
TTITLE20=Dr. Dre feat. Knoc-turn'al and Hittman - Bang Bang
TTITLE21=Dr. Dre feat. Mary J. Blige and Rell - The Message
EXTD=
EXTT0=
EXTT1=
EXTT2=
EXTT3=
EXTT4=
EXTT5=
EXTT6=
EXTT7=
EXTT8=
EXTT9=
EXTT10=
EXTT11=
EXTT12=
EXTT13=
EXTT14=
EXTT15=
EXTT16=
EXTT17=
EXTT18=
EXTT19=
EXTT20=
EXTT21=
PLAYORDER=
